<svg width="1024" height="1792" viewBox="0 0 1024 1792" fill="none" xmlns="http://www.w3.org/2000/svg">
  <defs>
    <radialGradient id="bgGlow" cx="0" cy="0" r="1" gradientUnits="userSpaceOnUse" gradientTransform="translate(512 850) rotate(90) scale(880 620)">
      <stop stop-color="#D8C8FF"/>
      <stop offset="0.45" stop-color="#B18BFF"/>
      <stop offset="1" stop-color="#5A5A63"/>
    </radialGradient>
    <radialGradient id="bodyGlow" cx="0" cy="0" r="1" gradientUnits="userSpaceOnUse" gradientTransform="translate(512 860) rotate(90) scale(450 360)">
      <stop stop-color="#F6F0FF"/>
      <stop offset="1" stop-color="#8B5CF6"/>
    </radialGradient>
    <linearGradient id="furMain" x1="320" y1="520" x2="730" y2="1310" gradientUnits="userSpaceOnUse">
      <stop stop-color="#9B6AFF"/>
      <stop offset="1" stop-color="#6C3ED6"/>
    </linearGradient>
    <linearGradient id="furDark" x1="470" y1="850" x2="770" y2="1310" gradientUnits="userSpaceOnUse">
      <stop stop-color="#7D4BE6"/>
      <stop offset="1" stop-color="#5D33BF"/>
    </linearGradient>
    <filter id="softShadow" x="110" y="380" width="804" height="1060" filterUnits="userSpaceOnUse" color-interpolation-filters="sRGB">
      <feGaussianBlur stdDeviation="20"/>
    </filter>
  </defs>

  <rect width="1024" height="1792" fill="url(#bgGlow)"/>
  <ellipse cx="512" cy="1540" rx="280" ry="130" fill="#2F2F37" opacity="0.28"/>

  <g opacity="0.35" filter="url(#softShadow)">
    <ellipse cx="512" cy="930" rx="300" ry="400" fill="#3E2C73"/>
  </g>

  <g>
    <path d="M258 860C258 674 379 540 512 540C645 540 766 674 766 860C766 1048 651 1180 512 1180C373 1180 258 1048 258 860Z" fill="url(#furMain)"/>
    <path d="M298 640C266 564 262 468 290 432C332 378 446 438 512 556L298 640Z" fill="#8B5CF6"/>
    <path d="M726 640C758 564 762 468 734 432C692 378 578 438 512 556L726 640Z" fill="#8B5CF6"/>
    <path d="M326 620C320 556 330 494 350 470C380 432 450 486 490 560L326 620Z" fill="#F6F2FF"/>
    <path d="M698 620C704 556 694 494 674 470C644 432 574 486 534 560L698 620Z" fill="#F6F2FF"/>
  </g>

  <g>
    <path d="M228 905C275 845 342 820 410 836C348 916 301 933 228 905Z" fill="#8B5CF6"/>
    <path d="M796 905C749 845 682 820 614 836C676 916 723 933 796 905Z" fill="#8B5CF6"/>
  </g>

  <g>
    <ellipse cx="420" cy="820" rx="88" ry="102" fill="#F8F8FF"/>
    <ellipse cx="604" cy="820" rx="88" ry="102" fill="#F8F8FF"/>
    <ellipse cx="420" cy="828" rx="46" ry="56" fill="#2E323A"/>
    <ellipse cx="604" cy="828" rx="46" ry="56" fill="#2E323A"/>
    <ellipse cx="398" cy="798" rx="18" ry="20" fill="#FFFFFF"/>
    <ellipse cx="582" cy="798" rx="18" ry="20" fill="#FFFFFF"/>
  </g>

  <g>
    <ellipse cx="512" cy="910" rx="34" ry="28" fill="#2C2F35"/>
    <ellipse cx="512" cy="900" rx="16" ry="6" fill="#636B77" opacity="0.7"/>
    <path d="M466 978C485 1000 539 1000 558 978" stroke="#6A2E7A" stroke-width="9" stroke-linecap="round"/>
  </g>

  <g>
    <path d="M232 930C300 885 394 896 456 940C380 992 306 997 232 930Z" fill="#F8F2E8"/>
    <path d="M792 930C724 885 630 896 568 940C644 992 718 997 792 930Z" fill="#F8F2E8"/>
    <ellipse cx="512" cy="1000" rx="204" ry="130" fill="#F8F2E8"/>
    <path d="M452 1090C471 1145 553 1145 572 1090" stroke="#E1D8CC" stroke-width="8" stroke-linecap="round"/>
    <ellipse cx="512" cy="1105" rx="92" ry="76" fill="#F8F2E8"/>
  </g>

  <g>
    <path d="M350 1120C330 1225 358 1308 450 1332C534 1352 610 1313 616 1196C620 1125 575 1080 512 1080C428 1080 366 1070 350 1120Z" fill="url(#furMain)"/>
    <path d="M620 1158C662 1142 698 1160 721 1218C748 1283 723 1339 671 1356C619 1374 566 1335 562 1274C557 1207 583 1170 620 1158Z" fill="url(#furDark)"/>
    <path d="M660 1220C701 1209 738 1255 728 1295C718 1334 675 1360 639 1346C603 1332 596 1298 610 1260C620 1234 635 1227 660 1220Z" fill="#F8F2E8"/>
    <ellipse cx="432" cy="1328" rx="50" ry="26" fill="#8B5CF6"/>
    <ellipse cx="542" cy="1328" rx="50" ry="26" fill="#8B5CF6"/>
  </g>

  <ellipse cx="512" cy="860" rx="276" ry="332" fill="url(#bodyGlow)" opacity="0.28"/>
</svg>
